<?xml version="1.0" encoding="UTF-8"?>
<svg width="55px" height="55px" viewBox="0 0 55 55" version="1.1" xmlns="http://www.w3.org/2000/svg" xmlns:xlink="http://www.w3.org/1999/xlink">
    <!-- Generator: Sketch 43 (38999) - http://www.bohemiancoding.com/sketch -->
    <title>icon</title>
    <desc>Created with Sketch.</desc>
    <defs></defs>
    <g id="GUI_Syllabus" stroke="none" stroke-width="1" fill="none" fill-rule="evenodd">
        <g id="Syllabus_S1_List" transform="translate(-568.000000, -96.000000)">
            <g id="Course-Info" transform="translate(568.000000, 96.000000)">
                <g id="icon">
                    <rect id="base" fill="#FFD012" x="0" y="0" width="55" height="55" rx="4"></rect>
                    <path d="M35.368,16.268 C37.3120097,17.7800076 38.4639982,19.8199872 38.824,22.388 L35.98,22.388 C35.6199982,20.5399908 34.7080073,19.1000052 33.244,18.068 C31.851993,17.1079952 30.1480101,16.628 28.132,16.628 C25.1559851,16.628 22.8520082,17.6719896 21.22,19.76 C19.7079924,21.7040097 18.952,24.271984 18.952,27.464 C18.952,30.7040162 19.6959926,33.2479908 21.184,35.096 C22.7680079,37.08801 25.059985,38.084 28.06,38.084 C30.1000102,38.084 31.8399928,37.5440054 33.28,36.464 C34.8160077,35.2879941 35.8359975,33.596011 36.34,31.388 L39.184,31.388 C38.6079971,34.4120151 37.2640106,36.7399918 35.152,38.372 C33.15999,39.9320078 30.7960137,40.712 28.06,40.712 C24.0759801,40.712 21.0160107,39.3920132 18.88,36.752 C16.9599904,34.3999882 16,31.3040192 16,27.464 C16,23.6239808 16.9839902,20.4920121 18.952,18.068 C21.0880107,15.3559864 24.15998,14 28.168,14 C31.0240143,14 33.4239903,14.7559924 35.368,16.268 Z" id="C" fill="#FFFFFF"></path>
                </g>
            </g>
        </g>
    </g>
</svg>