<svg width="25px" height="19px" viewBox="0 0 25 19" version="1.1" xmlns="http://www.w3.org/2000/svg" xmlns:xlink="http://www.w3.org/1999/xlink">
    <!-- Generator: Sketch 43 (38999) - http://www.bohemiancoding.com/sketch -->
    <desc>Created with Sketch.</desc>
    <defs></defs>
    <g id="Symbols" stroke="none" stroke-width="1" fill="none" fill-rule="evenodd" fill-opacity="0">
        <g id="SideBar/Course" transform="translate(-47.000000, -202.000000)" stroke="#000000" fill="#3D3D3D">
            <g id="SideBar">
                <g id="Score" transform="translate(30.000000, 203.000000)">
                    <g id="score-icon" transform="translate(18.000000, 0.000000)">
                        <path d="M8.37865995,0.490814696 L4.88342015,0.490814696 L0,3.83546326 L1.98311478,6.77875399 L3.420873,5.73522364 L4.93299802,4.61142173 L5.00736482,4.61142173 C4.93299802,6.32388179 4.90820908,7.82228435 4.90820908,9.45447284 L4.90820908,16.7591853 L8.37865995,16.7591853 L8.37865995,0.490814696 Z M11.7706126,8.75878594 C11.7706126,2.87220447 13.7785163,0.25 17.5464344,0.25 C21.4135082,0.25 23,2.97923323 23,8.65175719 C23,14.3777955 20.8929405,17 17.2241782,17 C13.3075265,17 11.7706126,14.2707668 11.7706126,8.75878594 Z M17.4224897,13.8426518 C19.0833483,13.8426518 19.5047602,12.2907348 19.5047602,8.75878594 C19.5047602,5.11980831 18.835459,3.43410543 17.298545,3.43410543 C15.6376864,3.43410543 15.2410634,5.01277955 15.2410634,8.65175719 C15.2410634,12.2639776 15.9351536,13.8426518 17.4224897,13.8426518 Z" id="10"></path>
                    </g>
                </g>
            </g>
        </g>
    </g>
</svg>