<svg xmlns="http://www.w3.org/2000/svg" width="21" height="24" viewBox="0 0 21 24">
    <path fill="#000" fill-rule="nonzero" stroke="#FFF" stroke-width=".25" d="M19.728 18.843a5.65 5.65 0 0 1-2.276-4.555v-3.795a6.97 6.97 0 0 0-5.06-6.695v-.896a1.9 1.9 0 0 0-1.897-1.897 1.9 1.9 0 0 0-1.897 1.897v.896a6.97 6.97 0 0 0-5.059 6.695v3.795a5.653 5.653 0 0 1-2.276 4.555.633.633 0 0 0 .38 1.138h5.754a3.167 3.167 0 0 0 3.097 3.796 3.165 3.165 0 0 0 3.099-3.796h5.754a.632.632 0 0 0 .38-1.138h.001zM9.863 2.903a.632.632 0 1 1 1.265 0v.661a6.965 6.965 0 0 0-1.265 0v-.662zm2.53 17.71a1.9 1.9 0 0 1-1.898 1.897 1.9 1.9 0 0 1-1.788-2.53h3.577c.07.203.109.416.109.633zm-9.18-1.898c.323-.39.603-.817.834-1.266a6.877 6.877 0 0 0 .757-3.161v-3.795A5.699 5.699 0 0 1 10.495 4.8a5.699 5.699 0 0 1 5.692 5.693v3.795a6.893 6.893 0 0 0 1.59 4.427H3.213h.001z"/>
</svg>
