<svg xmlns="http://www.w3.org/2000/svg" width="19" height="23" viewBox="0 0 19 23">
    <path fill="#000" fill-rule="nonzero" stroke="#FFF" stroke-width=".25" d="M15.015 2.465C13.534 1.45 12.482 1 11.608 1c-.75 0-1.362.336-1.814.999-.018.027-.063.083-.126.164-.15.192-.391.503-.656.863l-7.337 10.71c-.106.15-.17.25-.17.25a.613.613 0 0 0-.1.302l-.385 7.065a.614.614 0 0 0 .813.613l7.011-2.413a.606.606 0 0 0 .304-.23L16.386 8.88l1.12-1.598c1.336-1.952-.497-3.45-2.49-4.818zM2.294 20.51l.028-.517.48.342-.508.175zm1.932-.664l-1.824-1.304.193-3.535c.469.218 1.012.603 1.192 1.101.074.204.25.354.463.395.012.002 1.15.241 1.515 1.176.083.212.276.361.503.386.006.001.646.098 1.273.64l-3.315 1.14zm4.352-1.853a4.132 4.132 0 0 0-1.815-1.072c-.514-.956-1.457-1.374-1.958-1.536-.422-.807-1.217-1.272-1.74-1.508L9.628 4.27l.176-.243c.872.12 2.09.656 3.218 1.43 1.15.788 2.096 1.737 2.52 2.504L8.577 17.993zm7.914-11.4l-.194.277c-.578-.813-1.481-1.672-2.58-2.425-1.059-.727-2.152-1.247-3.105-1.5l.024-.029c.093-.12.155-.202.169-.224.222-.326.464-.465.802-.465.594 0 1.484.409 2.715 1.25 2.712 1.86 2.598 2.487 2.169 3.116z"/>
</svg>
