<svg xmlns="http://www.w3.org/2000/svg" width="25" height="19" viewBox="0 0 25 19">
    <path fill="none" fill-opacity="0" fill-rule="evenodd" stroke="#000" d="M9.379 1.49H5.883L1 4.836 2.983 7.78l1.438-1.044 1.512-1.124h.074c-.074 1.713-.099 3.211-.099 4.843v7.305h3.47V1.491zM12.77 9.76c0-5.887 2.008-8.509 5.775-8.509C22.414 1.25 24 3.98 24 9.652 24 15.378 21.893 18 18.224 18c-3.916 0-5.453-2.73-5.453-8.241zm5.651 5.084c1.661 0 2.083-1.552 2.083-5.084 0-3.64-.67-5.325-2.206-5.325-1.661 0-2.058 1.579-2.058 5.218 0 3.612.694 5.19 2.181 5.19z"/>
</svg>
