<?xml version="1.0" encoding="UTF-8"?>
<svg width="55px" height="55px" viewBox="0 0 55 55" version="1.1" xmlns="http://www.w3.org/2000/svg" xmlns:xlink="http://www.w3.org/1999/xlink">
    <!-- Generator: Sketch 44.1 (41455) - http://www.bohemiancoding.com/sketch -->
    <title>icon</title>
    <desc>Created with Sketch.</desc>
    <defs>
        <rect id="path-1" x="0" y="0" width="288" height="840"></rect>
        <filter x="-0.5%" y="-0.1%" width="100.7%" height="100.1%" filterUnits="objectBoundingBox" id="filter-2">
            <feOffset dx="-1" dy="0" in="SourceAlpha" result="shadowOffsetOuter1"></feOffset>
            <feComposite in="shadowOffsetOuter1" in2="SourceAlpha" operator="out" result="shadowOffsetOuter1"></feComposite>
            <feColorMatrix values="0 0 0 0 0.854901961   0 0 0 0 0.854901961   0 0 0 0 0.854901961  0 0 0 1 0" type="matrix" in="shadowOffsetOuter1"></feColorMatrix>
        </filter>
    </defs>
    <g id="Symbols" stroke="none" stroke-width="1" fill="none" fill-rule="evenodd">
        <g id="Course-Wizard" transform="translate(-32.000000, -29.000000)">
            <g>
                <g id="side-app---ooto-space">
                    <g id="base">
                        <use fill="black" fill-opacity="1" filter="url(#filter-2)" xlink:href="#path-1"></use>
                        <use fill-opacity="0.75" fill="#F6F6F6" fill-rule="evenodd" xlink:href="#path-1"></use>
                    </g>
                </g>
                <g id="Course-Wizard-Header" transform="translate(32.000000, 29.000000)">
                    <g id="icon">
                        <g id="base" fill="#518AFF">
                            <rect x="0" y="0" width="55" height="55" rx="4"></rect>
                        </g>
                        <g id="bg_icon_rocket" transform="translate(17.000000, 17.000000)" fill="#FFFFFF" fill-rule="nonzero">
                            <path d="M15.3255943,15.5127109 C14.9497962,15.4271536 14.5760002,15.6625585 14.4905319,16.0382676 C14.1523737,17.5248645 13.316555,18.8330058 12.1370389,19.7640142 L12.1370389,18.1820718 C12.1370389,17.7879655 11.8192801,17.4685382 11.4272871,17.4685382 L11.426642,17.4685382 C11.0346712,17.4685382 10.7168234,17.7879655 10.7168234,18.1820718 L10.7168234,21.037897 C10.7168234,21.0924214 10.723119,21.1454331 10.73462,21.1964427 C10.7474113,21.2593315 10.7689453,21.3215308 10.8001783,21.3812385 C10.9247992,21.6193796 11.1675898,21.7556128 11.4189449,21.7556128 C11.5020774,21.7556128 11.5861887,21.7405747 11.6672524,21.7094973 C11.71428,21.6925237 11.7589495,21.6706561 11.8007716,21.6445841 C12.791154,21.115557 13.6777599,20.3680318 14.3678687,19.4791347 C15.0914351,18.5471697 15.5904749,17.4936537 15.8511288,16.3477732 C15.9366193,15.9720419 15.7013034,15.5981569 15.3255943,15.5127109 Z" id="Shape" stroke="#518AFF" stroke-width="0.5"></path>
                            <path d="M5.52423404,16.5069196 C5.25172315,16.2344754 4.80998857,16.2345644 4.53754441,16.507053 L0.682015848,20.3635382 C0.409571696,20.6360491 0.409638435,21.0778059 0.682149326,21.3502278 C0.818382522,21.4864165 0.996904957,21.5545109 1.17542741,21.5545109 C1.35401659,21.5545109 1.53260576,21.4863498 1.66883896,21.3500943 L5.52436752,17.4936092 C5.79678943,17.2210983 5.7967227,16.7793415 5.52423404,16.5069196 Z" id="Shape" stroke="#518AFF" stroke-width="0.5"></path>
                            <path d="M6.07977809,18.0496649 L3.7664387,20.3635382 C3.49399454,20.6360268 3.49406128,21.0777837 3.76654993,21.3502278 C3.90278313,21.4864165 4.08130557,21.5545109 4.25985026,21.5545109 C4.43843943,21.5545109 4.61702861,21.486372 4.7532618,21.3501166 L7.0666012,19.0362433 C7.33904535,18.7637547 7.33897861,18.3219978 7.06648996,18.0495537 C6.79397907,17.7771318 6.35222224,17.777154 6.07977809,18.0496649 Z" id="Shape" stroke="#518AFF" stroke-width="0.5"></path>
                            <path d="M0.682149326,18.2650708 C0.818382522,18.4012596 0.996882717,18.4693317 1.17542741,18.4693317 C1.35401659,18.4693317 1.53262802,18.4011706 1.66883896,18.2649151 L3.98217835,15.9508861 C4.25460026,15.6783752 4.25453352,15.2366407 3.98202263,14.9641965 C3.70951174,14.6918191 3.26775491,14.6918413 2.995333,14.9643522 L0.682015848,17.2783812 C0.409593957,17.5508921 0.409638435,17.9926267 0.682149326,18.2650708 Z" id="Shape" stroke="#518AFF" stroke-width="0.5"></path>
                            <path d="M14.5362248,4.70163659 C13.0882688,4.70163659 11.9102431,5.87963998 11.9102431,7.32761826 C11.9102431,8.77559654 13.0882465,9.95359993 14.5362248,9.95359993 C15.984203,9.95359993 17.1622287,8.77559654 17.1622287,7.32761826 C17.1622287,5.87963998 15.9842253,4.70163659 14.5362248,4.70163659 Z M14.5362248,8.55821072 C13.8576838,8.55821072 13.3056323,8.00615926 13.3056323,7.32761828 C13.3056323,6.6490773 13.8576838,6.09702585 14.5362248,6.09702585 C15.214788,6.09702585 15.7668395,6.6490773 15.7668395,7.32761828 C15.7668395,8.00615926 15.2148103,8.55821072 14.5362248,8.55821072 Z" id="Shape"></path>
                            <path d="M21.2570774,0.685159761 C20.8050875,0.23316987 20.1015868,0.00399376087 19.1661069,0.00399376087 C17.7751891,0.00399376087 15.9754605,0.5096405 14.0984499,1.42779087 C12.0087919,2.44996254 9.99585967,3.89865267 8.27726139,5.61725093 C6.381075,7.51343733 4.75234972,9.93413487 3.43626672,12.8121168 L3.23469765,13.2528948 L8.68938685,18.7075618 L9.13016487,18.5059927 C12.0081246,17.189932 14.4288221,15.5611845 16.3250085,13.6649758 C17.4759833,12.5140455 18.50187,11.2557793 19.3742385,9.92519209 C20.1810042,8.69462189 20.8224393,7.45722224 21.2807025,6.24740737 C22.2476378,3.69450309 22.239051,1.66713328 21.2570774,0.685159761 Z M20.27041,1.67184939 C20.6584878,2.05994939 20.7752114,3.17541989 20.2737469,4.87230626 L17.1340878,1.73264713 C18.1080973,1.47466274 18.5853584,1.399383 19.1661069,1.399383 C19.6869698,1.399383 20.0997849,1.50124646 20.27041,1.67184939 Z M15.3383189,12.6783084 C13.656137,14.3604903 11.5212978,15.8239294 8.98768063,17.0324985 L4.90976091,12.9545566 C6.11833004,10.4209394 7.58176913,8.28610024 9.26395104,6.60394057 C10.874902,4.99298965 12.7586752,3.63653057 14.7115883,2.68125198 C15.0615368,2.51007065 15.4095499,2.35446137 15.7519348,2.21506926 L19.7794678,6.24260224 C18.7722008,8.50729011 17.2561059,10.7605214 15.3383189,12.6783084 Z" id="Shape" stroke="#518AFF" stroke-width="0.5"></path>
                            <path d="M0.388304739,11.2820961 C0.446588696,11.3125951 0.507230717,11.3337286 0.568584587,11.3466311 C0.620973413,11.3588218 0.675520087,11.3654733 0.731668457,11.3654733 L3.58749359,11.3654733 C3.98159996,11.3654733 4.3010272,11.0476255 4.3010272,10.6556547 L4.3010272,10.6550096 C4.3010272,10.2630388 3.98159993,9.94525778 3.58749359,9.94525778 L2.00552893,9.94525778 C2.93653737,8.76574167 4.24470087,7.92992296 5.73129783,7.59176476 C6.10702917,7.50629646 6.34232285,7.13243376 6.25685454,6.75670241 C6.17138624,6.38097107 5.79743454,6.14563289 5.4217922,6.2311457 C4.27591172,6.49179959 3.22235124,6.99083933 2.2904085,7.71438354 C1.40148911,8.40451459 0.653941674,9.29116491 0.12489237,10.2815918 C0.0985311087,10.3238811 0.0765300217,10.3691068 0.0594675,10.4166905 C-0.0643970435,10.7423688 0.0719028913,11.1165429 0.388304739,11.2820961 Z" id="Shape" stroke="#518AFF" stroke-width="0.5"></path>
                        </g>
                    </g>
                </g>
            </g>
        </g>
    </g>
</svg>