<?xml version="1.0" encoding="UTF-8"?>
<svg width="99px" height="16px" viewBox="0 0 99 16" version="1.1" xmlns="http://www.w3.org/2000/svg" xmlns:xlink="http://www.w3.org/1999/xlink">
    <!-- Generator: Sketch 41.2 (35397) - http://www.bohemiancoding.com/sketch -->
    <title>SmartNode</title>
    <desc>Created with Sketch.</desc>
    <defs></defs>
    <g id="学生" stroke="none" stroke-width="1" fill="none" fill-rule="evenodd">
        <g id="学生_课程大纲_一级页面" transform="translate(-25.000000, -22.000000)" fill="#252525">
            <g id="top_bar">
                <path d="M26.8457032,33.5429688 L25.4296875,35.1640625 C26.9466222,36.4661523 28.7597551,37.1171875 30.8691407,37.1171875 C34.1308757,37.0781248 35.7975257,35.6979303 35.8691407,32.9765625 C35.8691407,31.9674429 35.5533886,31.0820351 34.921875,30.3203125 C34.283851,29.545569 33.2975328,29.0670582 31.9628907,28.8847656 C31.285804,28.8001298 30.7519551,28.7252607 30.3613282,28.6601562 C29.6581997,28.5299473 29.1471371,28.2955746 28.828125,27.9570312 C28.509113,27.6249983 28.3496094,27.2539083 28.3496094,26.84375 C28.3626303,26.1601528 28.6002582,25.6458351 29.0625,25.3007812 C29.5052106,24.9687483 30.0585905,24.8027344 30.7226563,24.8027344 C32.0052148,24.8287762 33.1803332,25.1933559 34.2480469,25.8964844 L35.4492188,24.1191406 C34.1406185,23.1751255 32.6009204,22.6835939 30.8300782,22.6445312 C29.3587166,22.6575521 28.2226603,23.0416629 27.421875,23.796875 C26.595048,24.5585976 26.1816407,25.5611917 26.1816407,26.8046875 C26.1816407,27.8398489 26.5104134,28.7187464 27.1679688,29.4414062 C27.8059928,30.1445348 28.7369731,30.5970042 29.9609375,30.7988281 C30.6445347,30.8964849 31.2727836,30.9843746 31.8457032,31.0625 C33.0957094,31.2773448 33.7141928,31.9153593 33.7011719,32.9765625 C33.6751301,34.2721419 32.7376395,34.9329426 30.8886719,34.9589844 C29.3261641,34.9459635 27.9785213,34.473963 26.8457032,33.5429688 L26.8457032,33.5429688 Z M38.4928386,37 L40.5338542,37 L40.5338542,30.9648437 C40.5338542,30.2552048 40.7291647,29.7148456 41.1197917,29.34375 C41.4908873,28.9661439 41.9693981,28.7773437 42.5553386,28.7773437 C43.141279,28.7773437 43.623045,28.9661439 44.0006511,29.34375 C44.3717467,29.7148456 44.5572917,30.2552048 44.5572917,30.9648437 L44.5572917,37 L46.5983073,37 L46.5983073,30.9648437 C46.5983073,30.2552048 46.7903627,29.7148456 47.1744792,29.34375 C47.5520853,28.9661439 48.0338513,28.7773437 48.6197917,28.7773437 C49.2057321,28.7773437 49.684243,28.9661439 50.0553386,29.34375 C50.4264342,29.7148456 50.6119792,30.2552048 50.6119792,30.9648437 L50.6119792,37 L52.6529948,37 L52.6529948,30.2617187 C52.626953,29.1028588 52.2688837,28.2239613 51.5787761,27.625 C50.882158,27.0325491 50.1139365,26.7363281 49.2740886,26.7363281 C47.9394465,26.7233072 46.875004,27.1660111 46.0807292,28.0644531 C45.7291649,27.6738262 45.341799,27.3515638 44.9186198,27.0976562 C44.4889302,26.8697905 43.9225296,26.749349 43.2194011,26.7363281 C42.1256456,26.7363281 41.243493,27.1367147 40.5729167,27.9375 L40.5338542,27.9375 L40.5338542,26.8632812 L38.4928386,26.8632812 L38.4928386,37 Z M61.155599,37 L63.1966146,37 L63.1966146,30.0761719 C63.1835937,28.8391865 62.7962278,27.9667994 62.0345052,27.4589844 C61.2727827,26.9641902 60.2539127,26.7233072 58.9778646,26.7363281 C57.4674404,26.7102863 56.3248737,27.205073 55.5501302,28.2207031 L57.1516927,29.4414063 C57.3274749,29.148436 57.5683579,28.9401048 57.874349,28.8164063 C58.1673192,28.7122391 58.5677058,28.6601563 59.0755209,28.6601563 C60.4752674,28.6341145 61.1686199,29.0670528 61.155599,29.9589844 L61.155599,31.0234375 L58.3333334,31.0234375 C57.2525988,31.0364584 56.4322945,31.3294242 55.8723959,31.9023438 C55.3124972,32.4622424 55.0325521,33.1686155 55.0325521,34.0214844 C55.0325521,34.9134159 55.3548145,35.6458305 55.999349,36.21875 C56.6113312,36.8046904 57.4837183,37.1041666 58.6165365,37.1171875 C59.3066441,37.1171875 59.8470033,37.0325529 60.2376302,36.8632812 C60.6347676,36.70052 60.9277335,36.4466163 61.1165365,36.1015625 L61.155599,36.1015625 L61.155599,37 Z M61.155599,33.4355469 C61.155599,34.1972694 60.9960954,34.6855458 60.6770834,34.9003906 C60.3255191,35.1152354 59.7233116,35.2161459 58.8704427,35.203125 C58.193356,35.203125 57.7083348,35.0696628 57.4153646,34.8027344 C57.1093735,34.5618478 56.9563802,34.2688819 56.9563802,33.9238281 C56.9433593,33.1360638 57.529291,32.7291668 58.7141927,32.703125 L61.155599,32.703125 L61.155599,33.4355469 Z M66.25,37 L68.2910156,37 L68.2910156,30.8964844 C68.3040365,30.1542932 68.5188781,29.6171892 68.9355469,29.2851562 C69.3066425,28.9466129 69.7526016,28.7773438 70.2734375,28.7773438 C70.7356794,28.7773438 71.1816385,28.9466129 71.6113281,29.2851562 L73.0957031,27.5175781 C72.4902314,27.0097631 71.780603,26.749349 70.9667969,26.7363281 C69.8795519,26.7363281 69.0006544,27.1367147 68.3300781,27.9375 L68.2910156,27.9375 L68.2910156,26.8632812 L66.25,26.8632812 L66.25,37 Z M74.5670573,26.8632812 L73.5514323,26.8632812 L73.5514323,28.4160156 L74.5670573,28.4160156 L74.5670573,34.5 C74.5670573,35.3007853 74.80143,35.9127583 75.2701823,36.3359375 C75.7259137,36.778648 76.3118454,37 77.0279948,37 L78.0924479,37 L78.0924479,35.0761719 L77.3307292,35.0761719 C76.835935,35.0891928 76.595052,34.8385442 76.6080729,34.3242188 L76.6080729,28.4160156 L78.0924479,28.4160156 L78.0924479,26.8632812 L76.6080729,26.8632812 L76.6080729,23.7773438 L74.5670573,23.7773438 L74.5670573,26.8632812 Z M80.608724,37 L82.7669271,37 L82.7669271,26.8828125 L82.8059896,26.8828125 L89.2415365,37 L91.2825521,37 L91.2825521,22.7617188 L89.124349,22.7617188 L89.124349,32.8789062 L89.0852865,32.8789062 L82.639974,22.7617188 L80.608724,22.7617188 L80.608724,37 Z M94.0234375,31.921875 C94.0234375,32.9895887 94.1113272,33.8033826 94.2871094,34.3632812 C94.4694019,34.9231799 94.7493471,35.4082011 95.1269531,35.8183594 C95.4069024,36.1373714 95.7975235,36.4238269 96.2988281,36.6777344 C96.7936223,36.9576837 97.4283815,37.1041666 98.203125,37.1171875 C99.0039102,37.1041666 99.6516902,36.9576837 100.146484,36.6777344 C100.413413,36.5605463 100.63151,36.4205737 100.800781,36.2578125 C100.989584,36.1145826 101.149088,35.9680997 101.279297,35.8183594 C101.682945,35.4082011 101.9694,34.9231799 102.138672,34.3632812 C102.301433,33.8033826 102.382812,32.9895887 102.382812,31.921875 C102.382812,30.8541613 102.301433,30.033857 102.138672,29.4609375 C101.9694,28.9010389 101.682945,28.4290384 101.279297,28.0449219 C101.012368,27.7063785 100.634768,27.4036472 100.146484,27.1367188 C99.6516902,26.8828112 99.0039102,26.749349 98.203125,26.7363281 C97.4283815,26.749349 96.7936223,26.8828112 96.2988281,27.1367188 C95.7975235,27.4036472 95.4069024,27.7063785 95.1269531,28.0449219 C94.7493471,28.4290384 94.4694019,28.9010389 94.2871094,29.4609375 C94.1113272,30.033857 94.0234375,30.8541613 94.0234375,31.921875 L94.0234375,31.921875 Z M100.341797,31.9414062 C100.341797,32.6315139 100.309245,33.1393213 100.244141,33.4648438 C100.179036,33.7968767 100.045574,34.0898425 99.84375,34.34375 C99.6940097,34.5390635 99.4726577,34.7115878 99.1796875,34.8613281 C98.8997382,35.004558 98.5742206,35.0761719 98.203125,35.0761719 C97.8580712,35.0761719 97.5390639,35.004558 97.2460937,34.8613281 C96.9661444,34.7115878 96.7382821,34.5390635 96.5625,34.34375 C96.3867179,34.0898425 96.259766,33.7968767 96.1816406,33.4648438 C96.1035152,33.1393213 96.0644531,32.6250035 96.0644531,31.921875 C96.0644531,31.212236 96.1035152,30.6914079 96.1816406,30.359375 C96.259766,30.040363 96.3867179,29.7604179 96.5625,29.5195312 C96.7382821,29.2916655 96.9661444,29.1126309 97.2460937,28.9824219 C97.5390639,28.8457024 97.8580712,28.7773438 98.203125,28.7773438 C98.5742206,28.7773438 98.8997382,28.8457024 99.1796875,28.9824219 C99.4726577,29.1126309 99.6940097,29.2916655 99.84375,29.5195312 C100.045574,29.7604179 100.179036,30.040363 100.244141,30.359375 C100.309245,30.6914079 100.341797,31.2187464 100.341797,31.9414062 L100.341797,31.9414062 Z M111.002604,35.9355469 L111.002604,37 L113.04362,37 L113.04362,22.7617188 L111.002604,22.7617188 L111.002604,27.9375 C110.624998,27.5794253 110.231122,27.2864595 109.820964,27.0585938 C109.378253,26.8437489 108.896487,26.7363281 108.375651,26.7363281 C107.138666,26.7688804 106.233727,27.2115843 105.660807,28.0644531 C105.380858,28.3834651 105.195313,28.8033828 105.104167,29.3242188 C104.993489,29.8385442 104.938151,30.704421 104.938151,31.921875 C104.938151,33.1197977 104.993489,33.9791641 105.104167,34.5 C105.195313,35.0468777 105.380858,35.4798161 105.660807,35.7988281 C105.966798,36.1894551 106.347654,36.501952 106.803385,36.7363281 C107.239585,36.9772147 107.763669,37.1041666 108.375651,37.1171875 C109.456386,37.0911457 110.332028,36.6972694 111.002604,35.9355469 L111.002604,35.9355469 Z M109.000651,28.7773438 C109.482424,28.7773438 109.86328,28.8717438 110.143229,29.0605469 C110.423178,29.2493499 110.615234,29.4967433 110.719401,29.8027344 C110.84961,30.1087255 110.9375,30.4407534 110.983073,30.7988281 C110.996094,31.1569028 111.002604,31.531248 111.002604,31.921875 C111.002604,32.2799497 110.996094,32.6445294 110.983073,33.015625 C110.9375,33.3932311 110.84961,33.7350245 110.719401,34.0410156 C110.615234,34.3470067 110.423178,34.5944001 110.143229,34.7832031 C109.86328,34.9785166 109.482424,35.0761719 109.000651,35.0761719 C108.518878,35.0761719 108.151043,34.985027 107.897135,34.8027344 C107.617186,34.6139313 107.41211,34.3730483 107.281901,34.0800781 C107.158202,33.774087 107.076823,33.4290384 107.03776,33.0449219 C106.998698,32.6803367 106.979167,32.3059915 106.979167,31.921875 C106.979167,31.5182271 106.998698,31.1243509 107.03776,30.7402344 C107.076823,30.3821597 107.158202,30.0501317 107.281901,29.7441406 C107.41211,29.4381495 107.617186,29.1972665 107.897135,29.0214844 C108.151043,28.8587231 108.518878,28.7773438 109.000651,28.7773438 L109.000651,28.7773438 Z M123.597005,32.703125 L123.597005,31.0234375 C123.583984,29.6887954 123.170577,28.6406288 122.356771,27.8789062 C121.555986,27.1302046 120.576178,26.749349 119.417318,26.7363281 C118.935544,26.7363281 118.447268,26.8242179 117.952474,27 C117.451169,27.1757821 116.9987,27.4622376 116.595052,27.859375 C116.197915,28.250002 115.872397,28.7838508 115.61849,29.4609375 C115.364582,30.1250033 115.23763,30.9583283 115.23763,31.9609375 C115.23763,33.0026094 115.384113,33.8489551 115.677083,34.5 C115.944012,35.1770867 116.292316,35.7044252 116.722005,36.0820312 C116.94336,36.2643238 117.180988,36.4173171 117.434896,36.5410156 C117.675782,36.6842455 117.923176,36.7981767 118.177083,36.8828125 C118.684898,37.0390633 119.205726,37.1171875 119.739583,37.1171875 C121.13933,37.1302084 122.356766,36.5833389 123.391927,35.4765625 L121.917318,34.2167969 C121.266273,34.8743522 120.527348,35.203125 119.700521,35.203125 C118.990882,35.203125 118.417971,34.9882834 117.981771,34.5585938 C117.513018,34.1354146 117.278646,33.5169312 117.278646,32.703125 L123.597005,32.703125 Z M117.278646,31.0234375 C117.317708,30.2356731 117.529295,29.639976 117.913411,29.2363281 C118.304038,28.8522116 118.805335,28.6601562 119.417318,28.6601562 C120.0293,28.6601562 120.530597,28.8522116 120.921224,29.2363281 C121.318361,29.639976 121.529948,30.2356731 121.55599,31.0234375 L117.278646,31.0234375 Z" id="SmartNode"></path>
            </g>
        </g>
    </g>
</svg>